/* XPM */
static char *result[] = {
/* columns rows colors chars-per-pixel */
"64 64 88 1 ",
"  c #010101",
". c #090607",
"X c #0E0A06",
"o c #0A0509",
"O c #0E0C0B",
"+ c #120A05",
"@ c #110D09",
"# c #14100C",
"$ c #130E12",
"% c #131314",
"& c #1F1914",
"* c #1B171B",
"= c #241714",
"- c #221815",
"; c #49372C",
": c #52433A",
"> c #5B4739",
", c #4A474A",
"< c #494949",
"1 c #584844",
"2 c #A28A72",
"3 c #A6927C",
"4 c #A8937E",
"5 c #90BA64",
"6 c #95BC6D",
"7 c #97B775",
"8 c #C6976B",
"9 c #C99769",
"0 c #C7996C",
"q c #C8996B",
"w c #CD9D70",
"e c #D2A479",
"r c #95C465",
"t c #9BC366",
"y c #9ACC66",
"u c #96C269",
"i c #99C66B",
"p c #9DCB6F",
"a c #9DD267",
"s c #9FCD70",
"d c #A3CA68",
"f c #ABCF6A",
"g c #A0D967",
"h c #A3D468",
"j c #ACD46B",
"k c #A1DA68",
"l c #ACDC6B",
"z c #B2D36B",
"x c #B4DC6C",
"c c #BADB6E",
"v c #A2D172",
"b c #A9D977",
"n c #A6E469",
"m c #ABE26A",
"M c #AEE86B",
"N c #B3E36C",
"B c #BAE56E",
"V c #B4E96C",
"C c #BDEB6E",
"Z c #AEE372",
"A c #C0E36F",
"S c #C1E96F",
"D c #C5E370",
"F c #C4EC70",
"G c #CEEB73",
"H c #D2EF73",
"J c #D3F073",
"K c #DAF275",
"L c #D5AF90",
"P c #D6B092",
"I c #DBBC9F",
"U c #E3BA94",
"Y c #E5BE99",
"T c #E8BF9A",
"R c #D9BDA1",
"E c #A7C686",
"W c #B6E389",
"Q c #B8E78A",
"! c #E5C19B",
"~ c #E8C19C",
"^ c #E7C7A2",
"/ c #E9C6A3",
"( c #EAC9A6",
") c #EAC9A8",
"_ c #DADADA",
"` c #F7EFE4",
"' c #F7F0E2",
"] c #FFFFFE",
/* pixels */
"nr555555nr5rn55ynnr5555555KKx5555555ann55yk555555ga55ny55nna5555",
"ny555555555rM5ryk55cHn55rnny5555555555555yn5555555555ny55nr55KVa",
"y55555555555r555r55tjHayrnrr5555555555555rr5555555555r555rr55dAB",
"555u5555555555555555tcnayn555555555555555555u55555555555555555jN",
"55ui55555555rr55555555kyrn555555555655555555ir5555555trr5555555y",
"55555555555dKny55555555555555555555bu5555555555555555HCk55555555",
"555555ymH655tHMy55gy5555555ri55vt555555555555555kSz555cSn55yk555",
"5555aalSz5555jma5aSh55555555555iu555555c55555yaaScd555dzn5yxS555",
"5555nVCc555555yaynAd555u65555555555555tKyu555aMVAy55555taynNA555",
"555rnGc55555555ynnu5555ps5555555555555tKMa555aVK555555555nna5555",
"ny55ny555555555yn555555555555555555555555yk55ak5555555555ny55555",
"nr5rny55ggcc555yk5555555556      OO .xa55yn55ak55dalAt555nr55555",
"ar5rMyrhCgjj555ra55555zt555      %#  BBjyaa55ak5yBmgc6555a55555t",
"r555nyynHt555555555555Jj%%1LLLLLRRIIR%%GVh555akrnSz555555555555f",
"nr5rnnnk55555bt5555555nn  :UUUUY)((()  5HSn55annnt5555sh5555555y",
"nny5rkg555555u5555ABa5ra  :UUUYT)((/)  56hnn55ynu5555555555fGnr5",
"aar55yr55555555555zja   UUUUU))////^//^   aa55ra55555555555dcayy",
"55555555555555555555r   UUUUY)/////^///   55555555555555555555an",
"5555555555555555555<<222UUT~^/////```/^333,,55555555555555555555",
"555rnna5555555ay556  !U!UT~((^////]]]//^^(  5akn5555555rg5555555",
"5ay5nar555yy55na556  UUUUT~)//~///]]](//^)  5any5555a55yn5555pr5",
"5aayar5555hlrraar56  UUUUUT^///////(/]]/^)  yaa5555rVy5rnrr55du5",
"5ann555555BFn5ann56  UUUUUT///////^/^]]^^)  ny55555tKMyynnr55555",
"5ka555jG555rn55yn5i  UUUUUT/////////(]]^^)  t555Kd555ny55Mr55nGx",
"5aa55xxd555dGara  XUUUUU^^//////////////////.  Dd5555FBa5naaknky",
"5aaaaVz55556cnyr  @UUUUU^^//////////////////   F55555zmkrannaau5",
"55rnnay555555ny5  @UUUUU////////////////////   k555555aar5ay5555",
"55555555555555ka .#UUUUU////////////////////   55555555rn5555555",
"55555555555555r5  #UUUUU///////////~/^//////   55555555555555555",
"555555555555tE  UUUUUUUU/////^////////////////)  5555i5555555555",
"5rui55555555iE  UUUUUUUU//////////////////////( o5555tu5555555td",
"5sbv555555555E  UUUUUUUU//////////////////////(o*5555555555555AS",
"5555555555555E  UUUUUUUU///////////////////////**55555555555555j",
"555555dBa5555E  UUUUUUUU////////////////////)/)$ li5555555ay5556",
"5djy55dcCar55E  UUUUUUUP////////////////////)))  Bly555ryyMj5555",
"5ASk555uKMa55E  UUUUUUUU///////////////////)//)  DSn555ynnGx5555",
"55zHny5r5HCa5Q  UUUUUUUUUU!(//////////////))///o 5jJnrann5555555",
"55tdyaaa5dlk5Q  UUUUUUUUUUY^//////////////))(//  utdM5anr5555555",
"55555yan55rayQ  UUUUUUUUUUY((///////~/////////(  r5rayaa55yyyz55",
"555555aarr5rnQ  99qUUUUUUUUUU/////////////////(  y555nna55gnkHdt",
"ny5555ynnr5ynE  99wUUUUUUUUUUT(/////////////^(^  na55ny555ga5555",
"nr55555rnr5rnE  99qUUUUUUUUUUTTT//////////YY!!Y  aa55ny55nna5555",
"ny55555ry55rnE  990UUUUUUUUUUUUU//////^^//UUUUU  yy55ky55nay5chy",
"kr555555555tgE  99qUUUUUUUUUUUUU/////^^^//UUUUU  5555at55ar55DBg",
"5555555555555555. +89UUUUUUUUUUUUUUUUUUUUUUU   555555555555555DS",
"55uy555555555555  Xq9UUUUUUUUUUUUUUUUUUUUUUU   5555555555555555y",
"55555555555tDgu5  X99UUUUUUUUUUUUUUUUUUUUUUU   555555cxa55555555",
"555555ryz55tcCgr55p  99999eUUUUUUUUUU988q0 o5555yjy55zBNy55ty555",
"5555rraVG6555GNa5rm  q8999eUUUUUUUUUU99980  5r5rMAx555xAn5raM555",
"5555nnCH555555gaunHz5=-&-->qwwwwwwwqw-&&&&__5annKd55555tM5gCK555",
"555unFct5555555anny55     ;8999q99qq0     555aVH65555555rnna6555",
"au55njd55555555yny555     ;q9999999qq     a55anj555555555nar5555",
"ny5rnr55rytd555yk5555555557O.        dr55yn55aa55tyrd5555ny55555",
"nr5rnr5rnnSA555yn5555555557%         Sn55yk55an55gnMKt555nr55555",
"r555nyymKy6t5555555555Gj555lk55555556zHGmar55aarnScrt5555r55555f",
"ar5rnkknz5555yr5555555Vly5aaruc555555tzzCNy55ananzd555ty5555555d",
"nyr5anna55555du555dyu5ang5nyriDt55555555cBnr5aanar5555ip5555drrr",
"nna5raa55555555555GCg55ag5nryn55555555555ynnr5rn55555555555jKMr5",
"r5555555555555555555tMny5555yn5555d555555555555555555555555555gn",
"555555555555555555555ryr55555r5555u55us55555555555555555555555ry",
"5555ayr5555555rr555555555555555r55555us555555ryy55555555y5555555",
"55rrnna555rr55ka555555555rr5555ny555555555555ann5555555yn5555555",
"rkyrnr5555aa55ka555sv555rnnr555Gz55555rnr5rnraa5555rMr5yn5555bt5",
"5ana555555xSl5knk5555555rrnr55ld555HmauJnyrnny55555rJnrtnny55555"
};
