/* XPM */
static char *_98aaa9805974897dff5d681d8ce6102OfA0fjIhBJjYyu73[] = {
/* columns rows colors chars-per-pixel */
"64 64 164 2 ",
"   c #1D1C27",
".  c #1F1D2A",
"X  c #201D27",
"o  c #201D2B",
"O  c #35162D",
"+  c #39162C",
"@  c #35192E",
"#  c #3B1A2E",
"$  c #201D30",
"%  c #361733",
"&  c #3A1631",
"*  c #361A31",
"=  c #3B1A31",
"-  c #22222D",
";  c #421A2B",
":  c #4A1F29",
">  c #421B32",
",  c #4B222C",
"<  c #542327",
"1  c #592426",
"2  c #5C222C",
"3  c #592F2F",
"4  c #442C36",
"5  c #562F36",
"6  c #5B2D32",
"7  c #572F3C",
"8  c #4A3237",
"9  c #4C3438",
"0  c #4B3B3A",
"q  c #672227",
"w  c #6A2427",
"e  c #64232C",
"r  c #6B242B",
"t  c #68282C",
"y  c #712423",
"u  c #71232A",
"i  c #7A3527",
"p  c #7A372E",
"a  c #7E3231",
"s  c #3D3E47",
"d  c #453F4D",
"f  c #413A44",
"g  c #46404E",
"h  c #49424E",
"j  c #474050",
"k  c #484150",
"l  c #60724A",
"z  c #777850",
"x  c #5D5A65",
"c  c #625963",
"v  c #6A5F68",
"b  c #6A6069",
"n  c #7A7279",
"m  c #843B25",
"M  c #8B3E26",
"N  c #833729",
"B  c #853D2B",
"V  c #8B3F29",
"C  c #903F24",
"Z  c #803531",
"A  c #8B3F32",
"S  c #844126",
"D  c #8B4026",
"F  c #87412C",
"G  c #8B4029",
"H  c #904026",
"J  c #904429",
"K  c #994C2F",
"L  c #8C4031",
"P  c #AB653F",
"I  c #B46D3F",
"U  c #BB6A3A",
"Y  c #A76346",
"T  c #A96345",
"R  c #B16542",
"E  c #B76B42",
"W  c #BB6A45",
"Q  c #BE7246",
"!  c #BE7845",
"~  c #C67546",
"^  c #C97646",
"/  c #C57844",
"(  c #C97846",
")  c #C67549",
"_  c #C9764A",
"`  c #C57848",
"'  c #CA794B",
"]  c #D27B4D",
"[  c #C37350",
"{  c #C87850",
"}  c #82824F",
"|  c #808250",
" . c #8A8851",
".. c #85A95D",
"X. c #8CB462",
"o. c #90BA64",
"O. c #95C465",
"+. c #9BC266",
"@. c #9ACC66",
"#. c #96C268",
"$. c #99C66B",
"%. c #9ECB6F",
"&. c #9DD267",
"*. c #9FCD70",
"=. c #A3CA68",
"-. c #ABCF6A",
";. c #A0D967",
":. c #A2D468",
">. c #AED36B",
",. c #A0D968",
"<. c #AEDE6B",
"1. c #ABDA6A",
"2. c #B0D26B",
"3. c #B5D66D",
"4. c #B0D36B",
"5. c #B5DE6C",
"6. c #B5DB6D",
"7. c #BADA6E",
"8. c #BBDB6E",
"9. c #A2D072",
"0. c #A2D072",
"q. c #A9D977",
"w. c #A4E068",
"e. c #A7E669",
"r. c #A6E469",
"t. c #AAE36A",
"y. c #AEE86B",
"u. c #B2E36C",
"i. c #BAE66D",
"p. c #B6E96C",
"a. c #B1E86B",
"s. c #BEEA6E",
"d. c #BDEA6E",
"f. c #C1E46F",
"g. c #C1E96F",
"h. c #C5E270",
"j. c #C5E370",
"k. c #C4ED70",
"l. c #C5ED70",
"z. c #CFEA73",
"x. c #CBEF72",
"c. c #CFEA73",
"v. c #D2EF73",
"b. c #D3F073",
"n. c #D3F073",
"m. c #DAF275",
"M. c #DAF275",
"N. c #8E8184",
"B. c #978A8A",
"V. c #998B8B",
"C. c #9A9A9F",
"Z. c #9E9CA3",
"A. c #B5B6B6",
"S. c #B6B8B7",
"D. c #B4B8B7",
"F. c #B6B7B9",
"G. c #B6B7B9",
"H. c #B9B6B9",
"J. c #B7B8B9",
"K. c #B7B8B9",
"L. c #B9BABB",
"P. c #C5C6C7",
"I. c #ECECEC",
"U. c #FAFAFA",
/* pixels */
"e.@.o.o.o.o.o.o.e.O.o.O.e.o.o.&.e.e.o.o.o.o.o.o.o.o.M.M.7.o.o.o.o.o.o.o.,.e.,.o.o.@.w.o.o.o.o.o.o.&.&.o.o.w.@.o.o.e.e.&.o.o.o.o.",
"e.O.o.o.o.o.o.o.o.o.o.O.e.o.o.@.r.o.o.7.x.e.o.o.@.e.e.O.o.o.o.o.o.o.o.o.o.o.o.o.o.&.w.o.o.o.o.o.o.o.o.o.o.r.@.o.o.e.O.o.o.M.p.&.",
"@.#.o.o.o.o.o.o.o.o.o.o.O.o.o.o.O.o.o.+.4.x.,.O.O.e.O.O.o.o.o.o.o.o.X.o.o.o.o.o.o.o.O.o.o.o.o.o.o.o.o.o.o.+.o.o.o.O.O.o.o.=.i.i.",
"o.o.o.o.o.o.o.o.o.o.o.o.o.o.o.o.o.o.o.o.+.8.e.@.O.e.o.o.o.o.o.o.o.o.o.o.o.o.o.o.o.o.o.o.O.o.o.o.o.o.o.o.o.o.o.o.o.o.o.o.o.o.>.5.",
"o.o.#.$.o.o.o.o.o.o.o.o.+.O.o.o.o.o.o.o.o.o.r.+.O.e.o.o.o.o.o.o.o.o.o.o.o.o.o.o.o.o.o.o.$.#.o.o.o.o.o.o.o.#.o.#.o.o.o.o.o.o.o.@.",
"o.o.o.o.o.o.o.o.o.o.o.=.M.e.O.o.o.o.o.o.o.o.o.o.o.o.o.o.o.o.o.o.o.o.o.q.$.o.o.o.o.o.o.o.o.o.o.o.o.o.o.o.o.v.d.,.o.o.o.o.o.o.o.X.",
"o.o.X.o.o.o.@.t.v.o.o.o.+.v.a.&.o.o.,.@.o.o.o.o.o.o.o.#.#.o.o.9.$.o.o.#.o.o.o.o.o.o.o.o.o.o.o.o.w.j.4.o.X.+.8.l.w.o.o.O.,.o.o.o.",
"o.o.o.o.&.&.<.g.3.o.o.o.o.>.t.&.o.&.s.=.o.o.o.o.o.o.o.O.o.o.o.$.#.o.o.o.o.o.o.7.o.o.o.o.o.$.&.&.k.6.=.o.o.o.=.1.e.o.@.u.l.o.o.o.",
"o.o.o.o.e.a.d.8.o.o.o.o.o.o.@.&.@.e.i.-.o.o.o.o.=.o.| Y o.o.o.o.o.o.o.o.o.o.+.M.@.#.o.o.o.&.y.p.j. .z o.o.o.o.+.&.@.,.a.f.o.o.o.",
"o.o.o.O.e.x.7.o.o.o.o.o.o.o.o.@.e.e.o.o.o.o.o.%.0.o. .) o.o.o.o.o.o.o.o.o.o.+.M.a.&.o.o.o.&.p.M.o.~ ) o.o.o.o.o.o.e.e.&.o.o.o.o.",
"e.O.o.O.e.+.o.o.o.o.o.o.o.o.o.@.r.o.o.o.o.o.o...o.o.) ~ o.o.o.o.o.o.o.o.l o.o.o.o.@.w.o.o.&.,.o.o.) ~ o.o.o.o.o.o.e.O.o.o.o.o.o.",
"e.O.o.O.e.O.o.o.:.:.i.3.o.o.o.@.,.o.o.o.o.o.o.~ ' ^ o.3.>.o.o.o.o.o.o.o.' ~ @.o.o.@.w.o.o.&.,.o.o.~ ~ 1.f.#.o.o.o.e.O.O.o.o.o.o.",
"&.O.o.O.e.O.O.&.s.1.1.>.o.o.o.+.&.o.o.o.o.o.>.) _ ^ o.8.4.o.o.o.o.o.o.o.` ' i.>.@.&.@.o.o.&.,.o.@.) { :.8.+.o.o.o.&.o.o.o.o.o.+.",
"O.o.o.o.e.@.&.y.c.o.o.r w o.o.o.o.o.o.o.o.o.v.~ _ ^ r r r r t r V V G G G V = # # # = = # G G ` ' G V = = o.o.o.o.o.o.o.o.o.o.2.",
"e.O.o.O.e.e.e.r.o.o.o.r t q.$.o.o.o.X.o.o.o.e./ [ ' r r r r r q G V M M G M % & = = = = @ G G ~ ~ G G + # o.*.9.o.o.o.o.o.o.o.@.",
"w q G G #.,.&.o.o.o.o.o.o.w w G G G G _ ) V F D F V D G r r M V . . . . . . ( _ ~ ) ' G D r r ' ~ # # G G o.o.o.o.o.o.-.~ ( +.o.",
"w w V V o.@.O.o.o.o.o.o.o.r w V G G G ' ` M M V G D G G w r V V X - o o o o ^ ) _ ~ ` G D r r _ ~ = # F G o.o.o.o.o.o.=.) _ @.@.",
"o.o.o.o.' ~ o.o.o.& ; & # G V _ ' ' ' G V % = V G B ~ ~ = = . o H.S.J.G.G.A.  . r w r w r D M V G = @ G G = # o.X.~ ) ' o.o.,.,.",
"o.o.o.o.' ~ o.o.o.# = # = G G _ ~ ) ' V A + # V G M ~ ~ = + o o J.G.G.H.G.G.  . r e r r r V M V F = = G V = = o.o.) ~ ' o.o.o.o.",
"o.o.o.O.V V ) ~ ' # = w w G G w r r r % # # # ) ~ ( = # o o G.G.G.G.G.G.U.U.S.S.- X . . . o . . X # = r r M V _ ~ r r u o.o.o.o.",
"o.@.@.o.J V _ _ _ = = r r G V r r r r = # # # ) ) ' = = X o G.G.J.G.G.G.U.U.S.H.- . . o . . . . X = = w r G G ' ` u r r o.%.o.o.",
"o.,.= # ; & M V B { / r r * # r w # # . . . .   . $ . . V.B.G.G.G.G.G.G.G.G.B.B.k j f J.S.S.A.A.S.. X = = G V r r ; # # # = #.o.",
"o.,.# # # & B G M ~ ( w r # # r r & # . . . . . . . o X V.V.L.G.G.H.G.G.G.H.B.B.k d d G.G.G.S.G.J.. . # = D G w r ; # # # # o.o.",
"o.,.J V ' { r r r G V D D # # r r X . S.S.J.H.S.L.L.d d b b B.B.v v v v v v d d G.G.K.G.G.G.G.U.U.J.J.. . = # # = = # + ` ( = = ",
"o.&.G G ~ ' r r r B G G G @ # r r . . K.G.G.G.G.G.L.d d b b V.V.b b v v v b d d S.G.G.G.G.G.G.U.U.K.K.X . * = = = # # # ( ~ = = ",
"X.@.K K W E 2 e 2 M i D F # = 1 e s s K.G.P.P.S.G.G.x x c c N.N.n n n n n n d d C.C.Z.S.G.G.H.I.I.G.K.s s * @ < , > > # W I 7 5 ",
"= = ~ ~ M F = # # w r G F # = o . A.K.G.J.U.U.L.J.L.G.G.g d b b G.G.K.K.H.K.d d g d d H.G.G.G.G.G.G.S.G.J.  . L V w r q V V ) _ ",
"= = ` ) M D # # # u u G G = # $ - G.G.K.H.U.U.L.G.G.J.J.j j b b J.G.G.G.K.L.g k d d d A.A.G.G.G.G.G.S.A.S.. . G V e r r G M ~ ) ",
"> # ~ ~ e r # # @ G V V V . . K.G.G.G.G.G.G.G.G.G.G.J.K.j g K.G.G.G.G.G.U.U.G.L.g g d B.V.G.G.G.G.K.G.V.B.. . G G = # = r r V V ",
"@ % ` ' r r # # = D M D G . . K.G.G.G.G.G.G.G.G.G.G.J.K.d d G.G.G.G.G.K.U.U.A.K.d d s B.V.J.K.K.H.K.K.V.V.. . G J # = @ r e V V ",
"~ ~ M G r r + # @ _ ~ r w . . V.B.G.J.G.G.G.G.G.G.G.G.K.d d K.G.G.G.G.G.G.G.G.A.J.J.L.d d V.V.V.V.V.V.V.V.. . ; # # = = G G ) ) ",
"~ _ G G r r # # O _ _ w r . . V.B.G.G.G.G.G.G.G.G.G.G.J.j d G.G.G.G.G.G.G.G.G.G.J.K.L.d d V.V.V.V.V.V.V.V.. . # # # + * G B ) ) ",
"G G G V = = ) ~ _ G V # = o . b b V.V.G.G.G.G.G.G.G.G.L.d k V.V.G.G.G.G.G.G.G.G.J.G.L.j d V.V.V.V.V.V.b b . . = = ) _ _ _ ~ V V ",
"G V G G & % ) ) ' G G = = o . v b B.V.G.G.G.G.G.G.D.G.S.k k V.B.G.G.G.G.G.G.G.G.J.K.L.d d V.V.V.V.V.V.b v   . = = / { _ ~ ` M V ",
"= # M G # = ) ~ ~ G G # # X X d j b b B.V.V.V.V.B.V.b v d d b b B.V.V.V.V.V.V.V.V.V.V.g d b b b b b b $ . = = ' ~ G G V V C # = ",
"= # V V # = ) ~ ' G G # = o o g g b b V.V.V.V.V.V.V.b b d g b b B.V.V.V.V.V.V.V.V.V.V.d d b b b b b b . - = = ' ~ G G G G V # # ",
"= # V G r w ! ) ` r w = # # = o . d d b b b b b b b j g . . b b b b b b b b b v b b b g d j g . . . X # # # = G D w r r = # = = ",
"& = M G r r / ~ ' r w = = = & X . d d v b b b b b b g g . o b b b b b b v b b b b b b g d d d . . . - # # # ; M G u r r > # # # ",
"w r r r G D G G G r r = = w r V F . . . . - . . . . . . . o o o . o . . . . . . o . . . . . . # * = * S G ~ ~ q r w w r V G G M ",
"w u r r D G G G F w q = = r r V G . . . . . X . . . . . o o X X . . . . o . o . . . . . . . . = = # # F G ` _ r r r r r G G G V ",
"e.@.r r ' ' D G V _ ~ = = r r r w ( _ = = + = # = # = # # + G V ' _ = # # # = + ~ _ _ ^ _ _ _ G G w r _ _ V D @ # = # O ~ ' w r ",
"e.O.r r ' ' D G M ~ ~ = # w r r r ~ _ & # # # # # = # # # # V M ) ) # = = # ; = ) ) ) ~ ' ~ ~ G G w r ) _ F M # = = # O _ ~ r r ",
"e.O.r r _ _ B m N E W 6 5 q r e e Y Y 6 6 6 6 : , , , , , , m B ) ) # = = # 6 6 T R R R R W E G V Z a U W p i # # 6 6 6 W W 2 < ",
",.O.r r ( _ r r r G G ~ ) r r # = # # _ ` _ _ D G G V G V D r r _ ' ; # # = _ _ r r r r r V G V G ~ ~ G G # # # = ~ ` ' V G i.1.",
"o.o.r r _ ) r r r G B ~ [ t u = # # = ` ) ~ ~ G C C V A F G w w _ ~ = > = = ' ) u w t w t F B V G ~ _ B F * # ; # Q ( ' V F f.g.",
"o.o.r r G G u r r = = # # ' ' ~ ` = = + = F G ) _ ' r r r w = = V V ' ~ r r r e # # = = + # = r r G G = # # = D V ) ~ ' = * o.@.",
"o.o.t u C M y u r = # @ # / _ ) / # * * % H J ' _ ] q r q r # # V V ~ ~ r r r r # # # # = @ # e r G D # = # # D V ' ( ] 4 0 o.#.",
"o.o.o.o.> = = = = # # G G G G V V ( ' G G + & # # # V V # = r r r r ~ _ r r # # # # # = # _ ~ ~ ) w w D G # # ' ` = = ; @.o.o.o.",
"o.o.o.o.8 * = % = * & V V V G L M _ _ V L + & & = % V V @ # r w r r ~ ~ r w @ # # # & = = ~ ' ` ) r r B G * * ' ` # = 9 y.o.o.o.",
"o.o.o.O.e.y.) ) ) ) _ r r r r r r r r D A ~ ' ) ) ' V V V G = # r r G V G G w w V V V ) ' G D # = = # ) ~ V G r w o.,.i.M.o.o.o.",
"o.o.o.o.e.l.` ~ ~ ' _ r r r r r r r r D D _ ~ ~ ( ^ V G G V = = r r M G G G r r G G V ) ' V F # # = # ) ^ V V r r w.e.,.+.o.o.o.",
"@.O.o.#.r w e r r o.o.o.o.o.o.> > & ; # # u w r r w r r V V _ ' ; = # # G G r w r w r G V & = # # w r o.o._ _ _ ' e.&.$.o.o.o.o.",
"e.O.o.O.r r w r w @.+.=.o.o.o.+ = @ = @ # r r w r r r r G G _ ( = = = * G G r r e r r G M # # = # e w @.=.~ _ ~ ~ @.O.o.o.o.o.o.",
"e.O.o.o.e.$.o.#.e.e.g.j.o.o.o.@.w.o.o.o.o.o.o.o.o.o.o.j.8.o.o.o.) ) _ ^ j.l.,.o.o.@.w.o.o.&.&.o.o.,.e.y.M.+.o.o.o.~ ( ' M G o.o.",
"O.o.o.O.e.O.&.e.n.@.+.#.o.o.o.o.o.o.o.o.o.o.c.:.o.o.o.,.,.o.o.o.) _ _ ) #.3.v.c.y.@.#.o.o.&.,.o.r.l.7.o.+.o.o.o.o.) ~ ` G F o.-.",
"&.O.o.O.e.&.&.e.2.o.o.o.o.*.o.o.o.o.o.o.o.o.d.<.@.o.&.@.+.o.8.o.X.o.o.o.o.+.2.2.s.u.@.o.o.&.e.&.e.1.=.o.o.o.$.$.o.o.o.o.o.o.o.=.",
"e.&.O.o.,.e.w.&.o.o.o.o.o.*.o.o.o.o.=.@.#.o.&.e.;.o.e.O.o.@.h.o.o.o.o.o.o.o.o.o.8.i.w.O.o.&.,.e.&.O.o.o.o.o.$.%.o.o.o.+.=.O.o.@.",
"e.e.&.o.o.&.&.o.o.o.o.o.o.o.o.o.o.o.c.i.;.o.o.&.;.o.e.O.@.t.o.o.o.o.o.o.o.o.o.o.o.@.e.e.O.o.O.e.o.o.o.o.o.o.o.o.o.o.o.>.M.e.O.o.",
"o.o.o.o.o.o.o.o.o.o.o.o.o.o.o.o.o.o.o.o.O.e.e.@.o.o.o.o.@.t.o.o.o.o.*.o.o.o.o.o.o.o.o.X.o.o.o.o.o.o.o.o.o.o.o.o.o.X.o.o.o.o.,.e.",
"o.o.o.o.o.o.o.o.o.o.o.o.o.o.o.o.o.o.o.o.o.@.+.O.o.o.o.o.O.+.o.o.o.o.#.o.o.#.%.o.o.o.o.o.o.o.X.o.o.o.o.o.o.o.o.o.o.o.o.o.o.o.O.O.",
"o.o.o.o.@.@.O.o.o.o.o.o.o.o.$.+.o.o.o.o.o.o.o.o.o.o.o.o.o.o.o.@.o.o.o.o.o.#.%.o.o.o.o.o.o.O.@.&.o.o.o.o.o.o.o.#.&.o.o.o.o.o.o.o.",
"o.o.o.O.e.e.&.o.o.o.o.o.o.o.,.&.o.o.o.o.o.o.o.o.o.O.O.o.o.o.o.t.&.o.o.o.o.o.o.o.o.o.o.O.o.&.e.w.o.o.o.o.o.o.o.O.e.o.o.o.o.#.o.o.",
"o.w.&.O.e.O.o.o.o.o.&.,.o.o.,.&.o.o.o.*.9.o.o.o.O.e.e.O.o.o.o.v.2.o.o.o.o.o.#.e.O.o.O.e.O.&.&.o.o.o.o.O.e.O.o.O.e.o.o.o.o.q.#.o.",
"o.&.e.&.#.o.o.o.o.o.6.l.w.o.,.e.,.o.o.o.O.o.o.o.o.O.e.O.o.o.w.+.o.o.o.c.a.@.+.n.w.&.o.e.w.@.o.o.o.o.o.#.n.e.@.O.e.w.+.o.o.o.o.o."
};
