/* XPM */
static char *bb6b9eacf16f4f44c84f8961c336d4eeMuZ62qmOcQk43nnJ[] = {
/* columns rows colors chars-per-pixel */
"64 64 244 2 ",
"   c #2A241B",
".  c #332A1D",
"X  c #3E2B1A",
"o  c #32271C",
"O  c #2B391F",
"+  c #2C3617",
"@  c #2E2D24",
"#  c #352C24",
"$  c #322F2B",
"%  c #3A2B23",
"&  c #2D3C24",
"*  c #2F3429",
"=  c #2E3C2B",
"-  c #273A26",
";  c #343326",
":  c #323C25",
">  c #32352C",
",  c #38362B",
"<  c #333C2B",
"1  c #393B2C",
"2  c #383B26",
"3  c #2F3C31",
"4  c #383A33",
"5  c #55301F",
"6  c #44331E",
"7  c #422B25",
"8  c #433524",
"9  c #4B3422",
"0  c #41312A",
"q  c #43392D",
"w  c #473B25",
"e  c #553A23",
"r  c #57392A",
"t  c #4F3E31",
"y  c #603D27",
"u  c #3E4E1D",
"i  c #2E4223",
"p  c #334323",
"a  c #3B4C27",
"s  c #33422C",
"d  c #3A4C2B",
"f  c #3B432A",
"g  c #394532",
"h  c #3C4C32",
"j  c #3A4A38",
"k  c #3E5536",
"l  c #3D532C",
"z  c #454B25",
"x  c #5F402E",
"c  c #54452E",
"v  c #435C2C",
"b  c #424B3B",
"n  c #474833",
"m  c #435234",
"M  c #45553B",
"N  c #49523C",
"B  c #4B5C3C",
"V  c #485A37",
"C  c #54583B",
"Z  c #594C34",
"A  c #63442C",
"S  c #684834",
"D  c #754E3B",
"F  c #794E3E",
"G  c #66583F",
"H  c #75523C",
"J  c #5D722F",
"K  c #4E633C",
"L  c #4E6637",
"P  c #52633E",
"I  c #546B3C",
"U  c #576936",
"Y  c #5A7338",
"T  c #516729",
"R  c #667A3C",
"E  c #62732F",
"W  c #464A42",
"Q  c #454845",
"!  c #4A5643",
"~  c #4C5B41",
"^  c #475442",
"/  c #525E45",
"(  c #525C4A",
")  c #585545",
"_  c #585C54",
"`  c #695842",
"'  c #735142",
"]  c #4D6145",
"[  c #4E6A43",
"{  c #4F6B4B",
"}  c #49654B",
"|  c #526544",
" . c #536945",
".. c #5A6C46",
"X. c #54664B",
"o. c #546A4A",
"O. c #5A6C4B",
"+. c #59664E",
"@. c #5C7346",
"#. c #557149",
"$. c #5C734B",
"%. c #577546",
"&. c #556351",
"*. c #5C6B52",
"=. c #5D635C",
"-. c #596752",
";. c #5D7255",
":. c #4E695A",
">. c #616F4B",
",. c #60764B",
"<. c #647C4D",
"1. c #6A7D4C",
"2. c #647C46",
"3. c #62635C",
"4. c #616E52",
"5. c #617451",
"6. c #657C52",
"7. c #6A7E52",
"8. c #6B7E59",
"9. c #677B5C",
"0. c #5D6164",
"q. c #6A6765",
"w. c #6A7965",
"e. c #737A72",
"r. c #797C75",
"t. c #72706C",
"y. c #6B843E",
"u. c #748735",
"i. c #66824C",
"p. c #6B834D",
"a. c #6E884D",
"s. c #698545",
"d. c #738A45",
"f. c #74914D",
"g. c #7C9B4D",
"h. c #7A954C",
"j. c #678152",
"k. c #6A8253",
"l. c #6B815C",
"z. c #6D8B55",
"x. c #738C53",
"c. c #738A5A",
"v. c #728558",
"b. c #759254",
"n. c #7A9655",
"m. c #7D9C53",
"M. c #7B955A",
"N. c #7E9B5A",
"B. c #779B53",
"V. c #7EA147",
"C. c #738865",
"Z. c #7C9462",
"A. c #7E9A63",
"S. c #7C847A",
"D. c #89A537",
"F. c #839B49",
"G. c #829B53",
"H. c #819C5C",
"J. c #849857",
"K. c #939F4D",
"L. c #8BA746",
"P. c #97AC4F",
"I. c #8FB24E",
"U. c #87A253",
"Y. c #8AA658",
"T. c #93AC54",
"R. c #93AC58",
"E. c #9DB552",
"W. c #9BB35A",
"Q. c #98B459",
"!. c #8DB054",
"~. c #A4BA4D",
"^. c #A3BB54",
"/. c #A3BA5A",
"(. c #AABA5A",
"). c #A7B855",
"_. c #B3BE59",
"`. c #869461",
"'. c #849A64",
"]. c #81807C",
"[. c #8D997E",
"{. c #8CA365",
"}. c #93AB65",
"|. c #90BA64",
" X c #9AB567",
".X c #95AA76",
"XX c #99B972",
"oX c #A1BB63",
"OX c #A6B964",
"+X c #A4B973",
"@X c #B3BA68",
"#X c #B5C35D",
"$X c #AEC355",
"%X c #95C465",
"&X c #9BC266",
"*X c #9ACC66",
"=X c #95C168",
"-X c #9ECB6F",
";X c #9AC66C",
":X c #9DD267",
">X c #9CC175",
",X c #A4C968",
"<X c #A9C868",
"1X c #B5C861",
"2X c #A4D469",
"3X c #ADD46B",
"4X c #A0DA68",
"5X c #ADDA6B",
"6X c #A0D967",
"7X c #B2D46C",
"8X c #B4DC6C",
"9X c #BADB6E",
"0X c #A3C57B",
"qX c #B8C974",
"wX c #A5D374",
"eX c #BED37B",
"rX c #A6E469",
"tX c #ABE36A",
"yX c #AEE86B",
"uX c #B7E76D",
"iX c #C3CC6B",
"pX c #CCCE6F",
"aX c #C7C968",
"sX c #D5CA6D",
"dX c #C9D367",
"fX c #CFCD74",
"gX c #D2CC70",
"hX c #CBD179",
"jX c #C1E56F",
"kX c #C5E370",
"lX c #C4EC70",
"zX c #CDEC73",
"xX c #D7F175",
"cX c #888981",
"vX c #929984",
"bX c #91958B",
"nX c #99A58A",
"mX c #9FA59B",
"MX c #A8AA9F",
"NX c #AAC98A",
"BX c #B3D692",
"VX c #B9E98A",
"CX c #C0C0B9",
"ZX c #CFE8B6",
/* pixels */
"rX%X|.|.|.|.|.|.rX%X|.%XrX|.|.*XrXrX%X|.|.|.|.|.|.|.xXxX9X|.|.o.L |.|.|.:XrXrX|.|.*XtX|.|.|.|.|.|.4X:X|.|.tX*X|.|.rXrX:X|.|.|.|.",
"rX*X|.|.|.|.|.|.|.|.|.%XrX%X|.*X4X|.|.9XzXrX|.|.*XB K P nXnXw.+X+Xe.e.bX[ | |.|.|.*X4X|.|.|.|.|.|.|.|.|.|.4X*X|.|.yX%X|.|.xXuX:X",
"%X%X|.|.|.|.|.|.|.|.|.|.%X|.|.%X%X|.|.*X7XzX:X*X*X~ K K nXnXw.+X+Xe.e.nXI ~ |.|.|.|.%X|.|.|.|.|.|.|.|.|.|.*X|.|.|.%X%X|.|.<XuXuX",
"|.|.|.=X|.|.|.|.|.|.|.|.|.|.|.|.|.|.|.|.&X9XVXp 2 U.G.G.R E I dX).U U $.V.H.3 0X0X|.0X|.=X|.|.|.|.|.|.|.|.|.|.|.|.|.|.|.|.|.3XuX",
"|.|.=X;X|.|.|.|.|.|.|.|.%X%X|.|.|.|.|.|.R 1.K V V sXfXiXN.n.}.aX(.I.I.k.!.U.V P B f.2.|.;X%X|.|.|.|.|.|.|.%X*X|.|.|.|.|.|.|.|.%X",
"|.|.|.|.|.|.|.|.|.|.|.,XxXrX%X|.|.|.|.|.z 1XF.OXoX$XqXqXp.p._.sXiX~.E.s..XD. XF.F.@XE } } } |.|.|.|.|.|.|.zXuX4X|.|.|.|.|.|.|.|.",
"|.|.|.|.|.|.*XtXzX&X|.|.&XxXyX:X|.|.2X*Xw K.iX^.~.OXH.`.x.x.aXpXpXE.).d.H.oXJ.).).Y.L |.|.|.|.|.rXkX7X|.|. X9XlX4X|.|.*X4X|.|.|.",
"|.|.|.|.:X:X5XlX7X|.|.|.|.7X5X:X|.2XuX2Xf K.aX~.~.OX`.`.x.x.pXgXiX).E.d.J.OXJ.).^.U.L |.|.*X:X:XlX8X,X|.|.|.,X5XrX|.*XtXlX|.|.|.",
"|.|.|.%XyXyXuX9X|.|.|.|.|.|.*X:X*XrXkX,X:.v W.F.L.+XJ J 1X1XgXsXgXaXpXOXY m.G.W.R.%.&.|.|.:XyXuXkX&X|.|.|.|.|.%X6X*X6XuXkX|.|.|.",
"|.|.|.%XrXzX9X|.|.|.|.|.|.|.|.*XrXtX|.|.:.v /.F.F.+XJ J 1X1XgXsXgXaXaXOXU N.G.W.W.$.&.|.|.:XuXxX|.|.|.|.|.|.|.|.|.rXrX:X|.|.|.|.",
"rX%X|.%XyX%X|.|.|.|.|.|.|.|.|.*XZX8.Y Y R d.D.W.W.U.G.G.E.E.1XiXiXiXqX_.U.B.L.m.G.y.Y Y R Y >.mX|.|.|.|.|.|.|.|.|.rX*X|.|.|.|.|.",
"rX%X|.%XrX%X|.|.6X6X8X9X|.|.|.*XrX*.!.R.#XaX_.T.T.R.T.!.{.{.T.E.^.T.T.J.g.R.!.Q.E.^.^.P.P.P.I w.NX:X:X5XkX%X|.|.|.rX*X|.|.|.|.|.",
":X%X|.%XrX*X%X:XuX4X7X3X|.|.|.%X:X-.R.R._.aX_.T.T././.^.R.R.G.U.G.N.N.R. X/.E.$X^.u.u g g g >.g *XuX5X2X9X|.|.|.|.2X|.|.|.|.|.&X",
"%X|.|.|.rX*X*XyXzX&X|.|.|.|.|.|.|.|.1 2 u F.).)././.^./.R.!.G.U.G.J.M.R.oXW.Q./.E.u.u g g s >.g rXlX7X|.|.|.=X|.|.|.|.|.|.|.|.3X",
"rX%X|.%XrXrXrXrX|.|.|.|.|.wX;X|.|.4 , , P U.).^.~.~.).).$XE.W.F.oXU.U.$X^.W.^.~.~.$XI 3 3 3 3 bXrX*X|.|.|.|.-XwX|.|.|.|.|.|.|.*X",
"rXrX*X|.%X4X2X=X|.|.|.|.|.> < < p 7.L U F.OXY.<XOX~.hXhX#X#X$X^.).^.^.).$X^.^.{.Y. XoXT T T : & s & = |.|.|.|.|.|.|.|.3XzX4X%X|.",
":X:X*X|.|.*X*X|.|.|.|.|.h j j m ;.O.x.x.{.6.%.+X+XfXaXiX).E./.$X^.(.(./.dX#X Xo.o.j.{.x.x.x.$.I O.w.w.d |.|.|.|.|.|.|.;X9X:X*X*X",
"|.%X|.|.|.|.|.|.|.|._ ( 4.k.p.1.K V  . .2.o.1.qXqXdX1X_.h.f. XfXiXR.W.n._.pX~.1.7.5.c.a.x.a.h.n.a.<.<.o.=.|.|.|.|.|.|.|.|.|.:XrX",
"|.|.|.|.|.|.|.|.|.|._ _ 4.p.p.2.K V  . .<.o.p.qXqXdX@X(.h.h. XfXaXR.R.N._.pX).8.7.;.c.z.a.v.h.N.a.2.<.X._ |.|.|.|.|.|.|.|.|.|.|.",
"|.|.|.|.4X4X*X|.|.|.( ( & 8.8.9.m o. . .I  .{././.(.F.F.[ { }.aXdX!.!.h J.@XiXU.U.9.s.G.H.G.a.k.p i p < =.|.|.%X:X%X|.|.|.|.|.|.",
"|.*X*X|.rX:X*X|.mXmX! / & o.*.O L N.m.m.H.9.x.H.H. .X.o. . .M.)./.7.1.N & + J.a.x.9.Y  .o. .O & / O...& ( MX|.*XrX|.|.|.|.-X|.|.",
"|.4X:X*X4XBX& g p p p 2 < i i d.Q.^././.G.k.;. .[ # X . n n #.Q.+Xj j  .o.o.p V m p.j.{ { [ p.P 5.+.o.2 f : p p i BX|.|.|.wX=X|.",
"|.4XrXrX|.].! 2.m.M.2.@.M 5.5.x.m.}.$XE.Q.h.s. . .m q n 8 8 n x.c.k k X. ...8.a.p.G.d.f.f.f.@.$.m m m $.$.9.,.5.^ S.%X%X|.|.|.|.",
"|.4X:X|.|.S.! s.m.m.@.@.M 5.5.x.N. X^.^.P.h.d. .| k n n % 8 n z.c.k k { ....8.a.a.U.y.f.f.f.@.$.m m m ,.$.5.,.,.! S.%X|.|.rXzX9X",
"|.:X:X%X|.7X8Xj <.<.n.n.B.2.<.<.o.$.<.1.@.v.J.1.1.{ o.X.C ` r &.{ o... .<.k.a a a 1.x.H.H.'.k.$.6.j.l.i.<.%.d d |.rX:X:X4XyX4X;X",
"|.*X:X*X*XuX3Xj ,.5.B.b.B.<.<.6...$.1.<.@.v.M.1.1. .+.| ) ) r &.{ ....o.<.8.a a a p.x.H.H.H.k.$.5.8.l.j.<.%.d d |.:XrXrX:X:X=X|.",
"|.|.*X4X4XrX:X< h m <.<.B.A.{.j.;.8. .[ p.R.Y.s.s.7. ...#. .G c  .....k.a.j.& +.+.m O o.o.O.K @.k.k.j.j.| g :X:X%X|.:X:X|.|.|.|.",
"|.|.|.|.|.|.; _ m h o.| 9.j.j.V.b.o.k.l.oX~.L.y.y.7. . .[ K G 5 ` #.#.f.B.s.8.= = &  .l.8.k.k.p... . .o.& M < s rX|.|.|.|.|.|.|.",
"|.|.|.|.|.|.; X.m h | o.9.j.j.m.f.o.l.l.oX^.L.y.y.k. .| I P G 5 G %.#.f.B.i.j.= < = | k.k.j.k.p...|  .| & M < s =X|.|.|.|.|.|.|.",
"|.|.|.|.|.b g a I I i.p.Y I I Z.j.j.L.L.W.U.`.Z.'.k.@...@.@.z 6 z O.O.x.h.N.7.m m ..|  . . .@.,.i.@.@. .| m s s g j |.>XXX>X|.|.",
"|.|.S.K ~ ,.f.b.G.G.g.g.N.f.z.6.$.j.c.c.I V b k h M.p.p.i.i.o.m ..C B 2.@.i.i.....V | o.o.o.$.p.p.p.<.%.@.<.$.$.$.o.! S.C.S.&X,X",
"|.wXwXs s  .N.a.g.m.m.m.m.N.m.N.z.j.7.6.X.= f ,.<.N.m.N.x.x...I K C B c c O s m b X.o.o.o.o.k.k.k. . .k.k.@.6.j.I 9.g |.|.|.kXlX",
"|.|.|.|.|.> > +.7.7.a.a.s.A.N.j.j.i.k.k.l. .z `.`.(.^./.g.g.Y [ o.O...' r , - h h o.[ [ o.o. .<.| X.X.9...5.O O $ , |.|.|.|.|.3X",
"|.|.|.|.|.$ > o.1.7.a.a.i.A.Y.j.j.j.j.j.l.o.h `.`./.^.^.V.g.J [ o...>.' 9 , i h h { {  .o.[ I $.[ X.&.l.O.4.O O ; 4 :X*X|.|.|.|.",
"|.<X2X;X|.|.,X= B B 8.8.l.i.6.I a.a.k.a. .! *.|. XW.H.G.C.C.#.j...n q r 2 , 3 ~ B ~ | [ [ [ j.k.$.i i p & : NXNX*X*XyX3X|.|.|.|.",
"|.kXlX4X|.|.|.g b n h d O.$.@.x.b.m.M.b.@.] O.*.4.B C C Z Z 0 1.5.g g n h 3 3 k M o. .%.O.O.@.k.@. . .-.m g |.;XrXyXzX9X|.|.|.|.",
"|.|.7XxXrX%Xe.< / / $.,.M.f.b.m.f.M.i.p.l. .K M ! * 8 q A A e c >.w w n { B ~ o.o.5. .$.$.#.j.k.i.<.,.2...~ w.w.t.|.|.|.|.|.|.|.",
"|.|.=Xe.e.s o.8.x.b.N.G.Z.g.g.n.a.j. .[ k.$. . . .o.< < 0 7 q = : 1 1 N [ K  .o. . .6.k.k.k.o.o.X. ...7.1.,.[  .o.: r.|.|.|.|.|.",
"|.|.|.e.e.s o.j.x.f.N.J.A.m.m.m.p.k.[ [ j.$.I X.X.{ , 2 7 , 1 = * 1 < N [ I  . . . .7.k.k.k.o.o. . .| 1.p.@. .[  .s r.*X;X7X%X|.",
"%X|.CXN N l.p.H.g.g.m.m.s.'.'.i.@. .k.l.p.i. . . . .} ~ 2 2 / o.{ / ] ^ [  .o.5.6.6.k.<.p.2.6.k | +.+.I 1.p.j.l.6.o.( rXrXzX,X&X",
"rX%X|.r.r.g +.o.c.c.Z.Z. .s s p <.j.M.M.B.j.j.l.8. .I [  . . .o.[  .o...o. . .$.@.7.<.p.2.p.i.o.j s < o.9.,.| | 9.g S.:X|.|.|.|.",
"rX*X|.|.|.|.0.=.=.0.s 3 m ! ^ V B.N.f.f.N.b.j.@.@.8.$.@.$.2.%.k.@.6.<.<.$.$.1.;.$.<.k.k.p.k.j.O.k M ! m n 3.3.3.=.rXrX:X|.|.|.|.",
"rX*X|.|.|.|.0.=.=.3.< 1 N ! ! L M.B.B.f.N.b.i.$.@.k.,.,.<.$.@.i.@.k.6.2.$.$.i.;.;.$.k.p.i.k.j.O.M ^ ^ m j 0.3.3._ rX:X%X|.9X2X;X",
":X%X|.|.|.|.0.=.=.3.< < N ! ! B Z.N.f.f.N.b.i.%.@.7.2.$.<.<.@.k.@.<.6.<.$.@.6.$.$.,.k.6.k.j.j.O.M M N b n 3.3.0.=.6X%X|.|.kXuX5X",
"|.|.|.|.|.XX|.|.|.|..XbX1 ] ] p.G.m.i.i.C.o. .j.j.i.s.s.M.m.h.g.n.i.i.p.k.s.l.<.2.o.#.#.#.*.p.p.@.| P f |.|.|.|.|.|.|.|.|.|.kXlX",
"|.|.;X;X|.|.|.|.|.|.b b O.i.2.m.f.N.I I & h <.i.i.N.m.N.N.N.m.m.N.A.A.A.A.N.j.j.p.;.O *.*.{ o.j.j.j.k.o.^ |.|.|.|.|.|.|.|.|.|.*X",
"|.|.|.|.|.|.|.|.e.e.~ ! 8.'.'.'.@.p : & *.l b.N.m.m.N.N.z.x.a.m.N.j.i.%.N.m.N.b.n.l o.= = i - | 9.o.o.[ ( r.8X:X|.|.|.|.|.|.|.%X",
"|.|.|.|.|.|.%X:X7X X_ _ N W W W W W ( ( & 2.m.m.m.N.<.i.$.#.z.m.H.i.6. .i.m.M.m.B.2.& ( ( ( ^ W W Q Q Q _ 7XuXyXNXNX|.%X*X|.|.|.",
"|.|.|.|.%X%X:XuXzX%X_ _ N W W W W b ( ( : 2.G.m.m.m.<.i.$.$.k.m.H.<.<. .i.m.N.B.m.2.& ~ / ( ^ b b Q Q Q _ |.7XkXVXNX=X:XyX|.|.|.",
"|.|.|.|.rXrXuXzX|.|.|.|.|.|.2X2X%XrX> > M M.g.f.f.A.$.$./ / c.m.N.j.p.I 4.c.s.m.m.H.v > > > rXrXxX<X|.|.|.|.|.*XrX|.:XlXxX>X|.|.",
"|.|.|.%XrXzX9X%X|.|.|.|.|.|. X:X6XrXO * s.N.f.p.p.#.s s b b 2.m.N.i.<.h s O.j.n.m.b.p.* * * yXxX&X|.|.|.|.|.|.|.=XrXrX2X&X|.|.|.",
":X|.|.%XrX5X,X|.|.|.|.|.|.|.|.*XrX*X* - M.i.O.i & < < < > 3 ,.'.i.K K = , < : $.$.j.<.* = = 5X3X|.|.|.|.|.|.|.|.|.rX:X%X|.|.|.|.",
"rX%X|.|.rX*X|.|.*X%X,X&X|.|.|.*X4X|.< * *.~ < @ @   # $ , , / k.k.~ X., %   $ > > | 8.$ * * :X|.|.=X%X*X,X|.|.|.|.rX%X|.|.|.|.|.",
"rX%X|.%XrX%X|.|.rXrXlXkX|.|.|.*X4X|.* & *.! :   @   # $ , , / z.j.X.] , %   # > > ~ 8.; * * 6X|.|.:XrXyXxX&X|.|.|.rX*X|.|.|.|.|.",
"%X%X|.|.rX*X*XrXxX*X=X=X|.|.|.|.|.|.|.|._ q.q.    w 9 9 % % 2 5.O.2 1 ; r 9 @ q.q.q.) |.|.:X:X|.rXlX9X%X&X|.|.|.|.|.|.|.|.|.|.,X",
":X%X|.%XrX:XrXrX7X|.|.|.|.;X%X|.|.|.|.|.|.|.q.o o H S A t t > h j > , 9 S 9   t.t.8X*X|.%X:XrX:XrX5X,X|.|.|.;X;X|.|.|.|.|.|.|.2X",
"rX:X%X%X:XrXrX:XQ.|.|.|.|.-X=X|.|.|.,X,X|.cX$ 9 8 H e r y S S 9 ` r x A 5 9 8 ; $ [.4X%X|.:X4XrX:X%X|.|.|.|.;X;X|.|.|.%X,X*X|.;X",
"rXrX*X|.%X:X:X|.|.|.|.|.|.|.|.|.|.|.zXuX4X].$ q q o 6 X y y D ' ' e 5 H X . 8 @ $ cXyXrX%X|.%XrX|.|.|.|.|.|.|.|.|.|.|.7XxXrX*X|.",
"|.|.|.|.|.|.|.|.|.|.|.|.|.|.|.|.|.|.|.|.*X].$ q q o X X x x D ' ' 5 e H 7 # w @ @ cX|.|.|.|.|.|.|.|.|.|.|.|.|.|.|.|.|.|.|.|.2XrX",
"|.|.|.|.|.|.|.|.|.|.|.|.|.|.|.|.|.|.|.|.|.].$ q q . 7 % x x D ' ' e 5 H 7 # 8 @ @ cX|.|.|.|.|.|.|.|.|.|.|.|.|.|.|.|.|.|.|.|.%X%X",
"|.|.|.|.*X*X*X|.|.|.|.%X|.|.%X*X|.|.|.|.|.|._ > > 4 7 % ' F e % X ' D H X > $ _ _ |.|.|.|.%X*X*X|.|.|.|.|.|.|.%X:X|.|.|.|.|.|.|.",
"|.%X|.%XrX4X*X|.|.|.|.=X|.|.:X:X|.|.|.|.|.|.|.|.|.|.# % r r 7 o o r t r o |.|.|.|.|.|.|.|.:XrXrX|.|.|.|.%X|.|.%XrX|.|.|.|.%X|.|.",
"%X4X:X%XrX*X|.|.|.|.:X:X|.|.:X:X|.|.|.wXwX|.|.|.%XrX[.[.o @   eX0X% @   [.|.=XrX|.|.%XrX%X:X:X|.|.|.|.%XrX=X|.%XrX|.|.|.|.wX=X|.",
"|.:XrX:X%X|.|.|.|.|.8XlX4X%X4XrX4X|.|.|.|.|.|.|.|.|.vX[.o @   XX}.# # . .X:X=XxXrX:X|.rXrX:X|.|.|.|.|.&XzXtX*X*XrXrX;X|.|.|.|.|."
};
