/* XPM */
static char *_8685b36f5134545c9f426bebe110d99zsY0lkpWo9qxKd1z[] = {
/* columns rows colors chars-per-pixel */
"64 64 203 2 ",
"   c #A7E669",
".  c #97C765",
"X  c #90BA64",
"o  c #93C065",
"O  c #9ACD66",
"+  c #DAF275",
"@  c #BADA6E",
"#  c #A0D968",
"$  c #A4E068",
"%  c #9DD367",
"&  c #CBEF72",
"*  c #B6E96C",
"=  c #92BE64",
"-  c #93BF65",
";  c #96C565",
":  c #9CC367",
">  c #B0D46B",
",  c #97C766",
"<  c #A5CA69",
"1  c #C0E46F",
"2  c #B9E66D",
"3  c #93BD66",
"4  c #95C168",
"5  c #AED16B",
"6  c #B2DF6C",
"7  c #9AC76C",
"8  c #93BC65",
"9  c #9BC266",
"0  c #91BC64",
"q  c #98CA66",
"w  c #94BE67",
"e  c #91BB65",
"r  c #99C166",
"t  c #96C165",
"y  c #92BE65",
"u  c #A9D977",
"i  c #97C369",
"p  c #CFEA73",
"a  c #BDEB6E",
"s  c #AAE16A",
"d  c #D3F073",
"f  c #B1E46B",
"g  c #9BD066",
"h  c #A1DA68",
"j  c #99C56B",
"k  c #A2D172",
"l  c #C3E770",
"z  c #B4D56C",
"x  c #BBDC6E",
"c  c #C5EC70",
"v  c #AEDE6B",
"b  c #C1E96F",
"n  c #B0D26B",
"m  c #95BD65",
"M  c #A9E06A",
"N  c #BFE96F",
"B  c #A6D069",
"V  c #94C067",
"C  c #93BE67",
"Z  c #95C067",
"A  c #96BF65",
"S  c #98C866",
"D  c #C4ED70",
"F  c #B6DA6D",
"G  c #A2C868",
"H  c #ADD86B",
"J  c #99CC66",
"K  c #B1E86B",
"L  c #BCE66E",
"P  c #BDDC6E",
"I  c #9CD067",
"U  c #9CD167",
"Y  c #99CB66",
"T  c #C1E36F",
"R  c #A7CB69",
"E  c #94BF67",
"W  c #95C068",
"Q  c #A0CD68",
"!  c #94C165",
"~  c #ABE76A",
"^  c #C5E270",
"/  c #9FC567",
"(  c #95C365",
")  c #A2DD68",
"_  c #B4E46C",
"`  c #9ECC6F",
"'  c #A2D072",
"]  c #AEE86B",
"[  c #B5DE6C",
"{  c #B6D76D",
"}  c #9ED567",
"|  c #A6DB69",
" . c #98C066",
".. c #94C265",
"X. c #9FD167",
"o. c #A2D768",
"O. c #AED76B",
"+. c #9EC467",
"@. c #BBE16E",
"#. c #BBE86E",
"$. c #9DCE67",
"%. c #B3E26C",
"&. c #AFE16B",
"*. c #A1D468",
"=. c #ADE76A",
"-. c #AED56B",
";. c #9FD767",
":. c #92BB64",
">. c #ABCF6A",
",. c #B3E86C",
"<. c #A3D768",
"1. c #A1DB68",
"2. c #C4E970",
"3. c #92BD66",
"4. c #ADD16B",
"5. c #A5E268",
"6. c #90BB64",
"7. c #9FD667",
"8. c #C6E370",
"9. c #B6E46D",
"0. c #A2DB68",
"q. c #A0D168",
"w. c #A7E569",
"e. c #91BD64",
"r. c #AAD66A",
"t. c #92BC65",
"y. c #96C269",
"u. c #9BCF66",
"i. c #9CC96D",
"p. c #93BE66",
"a. c #9BC76C",
"s. c #A5D574",
"d. c #9ED467",
"f. c #98C46A",
"g. c #BDE66E",
"h. c #A3DF68",
"j. c #A0D967",
"k. c #98C966",
"l. c #A5D569",
"z. c #ADDF6A",
"x. c #9DCA6E",
"c. c #BEDE6F",
"v. c #9BC866",
"b. c #95C165",
"n. c #9BCC66",
"m. c #B7D86D",
"M. c #A1C968",
"N. c #A6E469",
"B. c #A4E168",
"V. c #A6DE69",
"C. c #96C168",
"Z. c #97C36A",
"A. c #A3D168",
"S. c #A6D269",
"D. c #B8E46D",
"F. c #A5E269",
"G. c #9DD267",
"H. c #9ACE66",
"J. c #A6D669",
"K. c #A3DE68",
"L. c #9FC967",
"P. c #C0E16F",
"I. c #A6DA69",
"U. c #ABDC6A",
"Y. c #A3CA68",
"T. c #BAE06E",
"R. c #9DC867",
"E. c #A5CE69",
"W. c #A8CC6A",
"Q. c #BBDF6E",
"!. c #A6E369",
"~. c #96C665",
"^. c #D2EE73",
"/. c #B2D86C",
"(. c #B3D96C",
"). c #BAE76D",
"_. c #A8DA69",
"`. c #B0DD6B",
"'. c #A4D668",
"]. c #A9D16A",
"[. c #BCE46E",
"{. c #B3E76C",
"}. c #AAE26A",
"|. c #C6E970",
" X c #C6ED70",
".X c #9CC767",
"XX c #9FCD70",
"oX c #ABE26A",
"OX c #B3E96C",
"+X c #98C36A",
"@X c #99C766",
"#X c #97C166",
"$X c #B3D66C",
"%X c #D2EF73",
"&X c #B8DC6D",
"*X c #A8E369",
"=X c #ABDD6A",
"-X c #A3CF68",
";X c #9DCA67",
":X c #B6D96D",
">X c #9CC667",
",X c #B0E36B",
"<X c #9AC266",
/* pixels */
"  . X X X X X o   o X .   X X O     o X X X X X X X + + @ X X X X X X X #   $ X X O $ X X X X X X # % X X $ O X X     % X X X X ",
"  . X X X X X X X X X .   X X O $ X X @ &   X X .     . X X X X X X X X X X X X X O $ X X X X X X X X X X $ O X X   . X X + * % ",
". = X X X X X X X X X = . X X - ; X X : > & # , .   . = X X X X X X X X X X X X X - ; X X X X X X X X X X ; - X X . = X X < 1 2 ",
"X X 3 4 X X X X X X X X X X X X X X X X : @   O .   X X X X X X X X X X X X X X X X X X 4 3 X X X X X X X X X X X X X X X X 5 6 ",
"X X 4 7 X X X X X X X 8 9 o 0 X X X X X X X $ q ; $ X X X X X X X X X w e X X X X X X X 7 4 X X X X X X X r t y X X X X X X X q ",
"X X X X X X X X X X X < +   . X X X X X X X X X X X X X X X X X X X X u i X X X X X X X X X X X X X X X X p a # X X X X X X X X ",
"X X X X X X q s p r X 8 9 d f g X X h q X X X X X X X j i X X k j X X w e X X X X X X X X X X X $ l z X X r x c $ X X q $ X X X ",
"X X X = % % v b n m X X X n M % = % N B X X X X X X X V C X X j Z X X X X X A @ A X X X X S % % D F G X X X G H   X J v D X X X ",
"X X X o   K L P X X X X X X I U Y   T R X X X E W X X X X X X X X X X X X X 9 + Q ! X X X % ~ * ^ / X X X X X ( # . ) _ ^ X X X ",
"X X X o   & @ X X X X X X X X O     o X X X X ` ' X X X X X X X X X X X X X 9 + ] % X X X % * + X X X X X X X X X     % X X X X ",
"  . X o   . X X X X X X X X X O $ X X X X X X X X X X X X X X X X X X X X X X X X O $ X X % # X X X X X X X X X X   . X X X X X ",
"  . X o   . X y # # [ { X X X O $ X X X X X X X X X X { 5 X X X X X X X { [ } X X O $ X X % # X X I # | ^  .X X X   . X X X X X ",
"% ! X o   . ..X.a o.O.5 X X X ; g X X X X X n +.X X X [ O.X X X X X X X 5 @.#.n $.g g X X % # X O %.&.*.@ A X X X % ! X X X X +.",
"o 0 X o   Y I =.p r X X X w e X X X X X X X d -.y X o ;.g :.9 :.X X X X X >.p p ,.<.- X X % 1.o   2.z X X X 3.3 X X X X X X X 4.",
"  . X o       $ X X X X X u i X X X X X X X     # X   . X 9 + 9 X X X X X X X X p D $ X X %       . X X X X ` ' X X X X X X X O ",
"  5.g 6.o 1.7.- X X X X X w e X X X 8.9.} X o 7.# X   . q 0.9 :.X X X X X X X X r q.w.$ - = Y   o 0 X X X X 3.3 X X X >.p $ ; e.",
"% % S X X J S X X X X X X X X X X X z r.U O O I J X % ! O $ X X X t.y.X X X X X X ; % % = X ! % X X X X X X X X X X X G @ % u.O ",
"X X X X X X X X X X X X X X X X X X X X ; $ $ q X X X X q h X X X C i.X X t.p.X X X X X X X X X X X X X X X X X X X X X X X } $ ",
"X X X X X X X X X X X X X X X X X X X X X X X X X X X X X X X X X X X X X a.s.X X X X X X X X X X X X X X X X X X X X X X X X X ",
"X X X - $ $ g X X X X X X X } g X X X X X X X X X X X X X X X h q X X X X t.p.X X X X X X g $ $ X X X X X X X ; $ X X X X X X X ",
"X J S o   d.; X X X S J X X # % X X X f.7 X X X ! % % ! X X X g.B X X X X X = % = X = % = % h.O X X X = % = X .   X X X X ` E X ",
"X # j.k.# ( X X X X l.z.. X # j.; X X 7 x.X X X ( #   . X 0 . c.R X X < v.! b.* n.! o   Y U I X X X X b.* n.- .   . = X X ' W X ",
"X #   $ X X X X X X @ &   X #   $ X X X X X X X X X   . X o   o X X X + * % 9 + ] % o     O X X X X X 9 + ] O .     . X X X X X ",
"X # % X X X n p X X X .   X X O $ X X % * + X X X X     % o   o X X X X ^ @ X X $ % o   o X X X + < X X X $ O X X   . X X   & @ ",
"X # % X X { m.G X X X M.& # ( O N.# # B.V.< X C.Z.X . ) % o   o X X X X / A.} X $ % o   o X / ^ < A X X X l %.I X   ) # #   S.: ",
"X J I O O D.O.X X X X : @   . ; 7.  7.% J X X W C.X X J I I   o X X X X X O F.O G.S = % H.O J.D X X X X X z &.# X % B.K.% % ! X ",
"X X q $ $ $ g X X X X X X $ k.= - $ - X X X X X X X X X q B.  o X e w X X q $ $ - X X X h $ $ $ X X X X X X g ;.o X } g X X X X ",
"X X X X X X X X X X X X X X # % X X X X X X X X X X X X X o   o X i u X X X X X X X X X X X X X X X X X X X X .   X X X X X X X ",
"X X X X X X X X X X X X X X y = X X X X X X X X X X X X X 6.o 6.X e w X X X X X X X X X X X X X X X X X X X X 0 o X X X X X X X ",
"X X X X X X X X X X X 3.f.X X X X X X X X X X X X X % ! X X X X X X X X X X X X X X X X X X X X X X X X X i C X X X X X X X X X ",
"X W i y.X X X X X X X p.7 X X X X X X X A < . - X X   . X X X X X X X X X X X X X X e i i p.X X X X X X X j V X X X X X X X / L.",
"X ' u s.X X X X X X X X X X X X X X X X < +   O X X   . X X X X X X X X X X X X X X w u u a.X X X X X X X X X X X X X X X X ^ D ",
"X X X X X X X X X X X X X X X X X X X X X X + a # X     % 9 + 9 X X X X X a.s.X X X X X X X X X X X X X X X X X X X X X X X X n ",
"X X X X X X R P.# y X X X X X X y # y X X X < I.# X     % b.* b.X X X X X p.y.X X X X X X X X X ^ U.J X X X X X X X I J X X X r ",
"X R B q X X G x a X...X X X , O X.a t X X X X % h.O % % I H.% = X X X X X X X X X X m n $...X X @ L v q X X X - O O %.r.X X X X ",
"X ^ D $ X X X 9 + ] O X X X #   ] + 9 X X X X %     X X O $ X X X X X X X X X X X X 9 + ] O X X X ^ D $ X X X .     & @ X X X X ",
"X X n d   . X X X p a # X     % X X X X X X X X .     . O $ X X X X X X X O $ X X X X X p a # X X X n d   o %     X X X X X X X ",
"X X r Y.. d.# } X G I.# X   g ! X X X X X X X X = . . = - ; X X 5 T.# X X O $ X X X X X G R.J # # ( r E.  o % ) . X X X X X X X ",
"X X X X X J 1.$ X X S U O   . X e.O O B R X y.3 X X X X X X X X W.Q.a O - O F.O e.X X X X X ! %   . X = % H.1.# X X , O O n r 3 ",
"o 0 X X X X O B.o 6.X .   $ ; X o   B.g.P X i.4 X X X y t r X X X G p   Y H.$ $ - e.- X X X X X   Y = X X $ F.} X X # !.$ p G 4 ",
"  . X X X X O     o X .   X X X o   o X X X X X X X X # a p X X X X X     % X X X O $ X X X X X     % X X $ O X X X # % X X X X ",
"  . X X X X e.~.  o X .   X X q B.  o X X X X X X X p ^.x r X X X X X o 1.!.h X X O $ X X X X X o 1.% X X $ O X X $ N.% X X X X ",
"  . X X X X X e.O e.X .   X X O F.O e.W./.% X X ! % a (.G X X X X X X X , O q X X O $ X X X X X X , ; X X $ O X X   d.; X @ l.S ",
"# ( X X X X X X X X X ( # X X , } X X 5 1 * . - .   # ( X X X X X X X X X X X X X , } X X X X X X X X X X } , X X # ( X X ^ )._.",
"X X X X X X X X X X X X X X X X X X X X < +   O .   X X X X X X X X X X X X X X X X X X X X X X X X X X X X X X X X X X X X ^ D ",
"X X y.i.X X X X X X X X X X X X X X X X X X   O .   X X X X X X X X X X X X X X X X X X i.y.X X X X X X X X X X X X X X X X X O ",
"X X t.C X X X X X X X / ^ # ( X X X X X X X . - = . X X X X X X X X X ' W X X X X X X X C t.X X X X X X X P `.I X X X X X X X - ",
"X X X X X X ..$.n m X : @ a '.; X X q ..X X X X X X X V C X X j Z X X ` E X X X X X X X X X X X O ].G X X z [.%.O X X ..O X X X ",
"X X X 6.o o X.,.p r X X X p {.% 6.o }.$.X X X X X X X j i X X k j X X X X X :.9 :.X X X X = o o ] |.z X X X z 2.  X y X.] X X X ",
"X X X o     a p X X X X X X # % o   d n X X X X X X X X X X X X X X X X X X 9 + 9 X X X X %     + < X X X X X .   X # a + X X X ",
"X X X o    Xx r X X X X X X y H.B.  .Xm X X X i.XXX X X X X X X X X X X X X 9 + oXg X X X % OXd 9 8 X X X X X 0 o $ N.o.9 X X X ",
"% ! X o   H G X X X X X X X X O F.O e.X X X X y.+XX X X X X X X X X X X X X m n $.g g X X % M n X X X X X X X X X   d.; X X X X ",
"  . X o   . X 0 . . L./ X X X O $ X X X X X X X X X X / : X X X X X X X / L.; X X O $ X X % # X X ( . @X< 8 X X X   . X X X X X ",
"  . X o   . X o     D ^ X X X O $ X X X X X X X X X X ^ @ X X X X X X X ^ D $ X X O $ X X % # X X #   ] + 9 X X X   . X X X X X ",
"o 0 X o   . q }.d .X#X .X X X e.- X X X X X p >.X X X | *.X X X X X X X  .$X%Xp s G.- X X % # X $ c &X! 9 :.X X X o 0 X X X X >.",
"% ! X o   j.1.*Xn m X X X ` E X X X X X X X a =XJ X % u.; A @ A X X X X X +.n n b %.g X X % B.%   H G X X X f.7 X X X X X X X -X",
"  g ! y # F.B.} X X X X X ' W X X X G R.( X # B.# X   . - ;X^  .X X X X X X X X P D.5.. 0 J )   # ( X X X X 7 x.X X X r < . = , ",
"    % X X # % X X X X X X X X X X X p a # X X % # X   . O $ X X X X X X X X X X X O     o X .   X X X X X X X X X X X n +   . X ",
"X X X X X X X X X X X X X X X X X X X X .     O X X X X O $ X X X E ` X X X X X X X X X X X X X X X X X X X X X X X X X X X #   ",
"X X X X X X X X X X X X X X X X X X X X = . . - X X X X - ; X X X e E X X +XXXX X X X X X X X X X X X X X X X X X X X X X X ( . ",
"X X X e.O O ; X X X X X X X , ; X X X X X X X X X X X X X X X q ..X X X X y.i.X X X X X X ; O O X X X X X X X - O X X X X X X X ",
"X y = o   5.g X X X = y X X # % X X X 3.3 X X X 0 o o 0 X X X s $.X X X X X 6.o 6.X 6.o 6.% N.$ X X X 6.o 6.X .   X X X X w e X ",
"X # % o   . X X X X % # X X # % X X X ` ' X X X .     . X X X p n X X X X X o   o X o   o % # X X X X o   o X .   X X X X u i X ",
"X # !.1.o 0 X X X X :Xc $ X # !.h X X 3.3 X X X 0 o   . X - $ >Xm X X p ,Xg <Xd }.g o   B.H.y X X X X <Xd }.q .   $ ; X X w e X "
};
