/* XPM */
static char *_5f492ccc073435de4fd9bb47e56efccQuuEWVIKmhmKiEvi[] = {
/* columns rows colors chars-per-pixel */
"64 64 174 2 ",
"   c #A7E669",
".  c #97C765",
"X  c #90BA64",
"o  c #93C065",
"O  c #9ACD66",
"+  c #DAF275",
"@  c #BADA6E",
"#  c #A0D968",
"$  c #A4E068",
"%  c #9DD367",
"&  c #CBEF72",
"*  c #B6E96C",
"=  c #92BE64",
"-  c #93BF65",
";  c #96C565",
":  c #9CC367",
">  c #B0D46B",
",  c #97C766",
"<  c #A5CA69",
"1  c #C0E46F",
"2  c #B9E66D",
"3  c #93BD66",
"4  c #95C168",
"5  c #AED16B",
"6  c #B2DF6C",
"7  c #9AC76C",
"8  c #93BC65",
"9  c #9BC266",
"0  c #91BC64",
"q  c #98CA66",
"w  c #94BE67",
"e  c #91BB65",
"r  c #99C166",
"t  c #96C165",
"y  c #92BE65",
"u  c #A9D977",
"i  c #97C369",
"p  c #CFEA73",
"a  c #BDEB6E",
"s  c #AAE16A",
"d  c #D3F073",
"f  c #B1E46B",
"g  c #9BD066",
"h  c #A1DA68",
"j  c #99C56B",
"k  c #A2D172",
"l  c #C3E770",
"z  c #B4D56C",
"x  c #BBDC6E",
"c  c #C5EC70",
"v  c #AEDE6B",
"b  c #C1E96F",
"n  c #B0D26B",
"m  c #95BD65",
"M  c #A9E06A",
"N  c #BFE96F",
"B  c #A6D069",
"V  c #94C067",
"C  c #93BE67",
"Z  c #95C067",
"A  c #96BF65",
"S  c #98C866",
"D  c #C4ED70",
"F  c #B6DA6D",
"G  c #A2C868",
"H  c #ADD86B",
"J  c #99CC66",
"K  c #B1E86B",
"L  c #BCE66E",
"P  c #BDDC6E",
"I  c #9CD067",
"U  c #9CD167",
"Y  c #99CB66",
"T  c #C1E36F",
"R  c #A7CB69",
"E  c #94BF67",
"W  c #95C068",
"Q  c #2C1924",
"!  c #ABE76A",
"~  c #C5E270",
"^  c #9FC567",
"/  c #95C365",
"(  c #A2DD68",
")  c #B4E46C",
"_  c #9ECC6F",
"`  c #A2D072",
"'  c #B5DE6C",
"]  c #B6D76D",
"[  c #D1A296",
"{  c #A6DB69",
"}  c #98C066",
"|  c #94C165",
" . c #94C265",
".. c #9FD167",
"X. c #A2D768",
"o. c #AED76B",
"O. c #9EC467",
"+. c #B3E26C",
"@. c #AFE16B",
"#. c #A1D468",
"$. c #ADE76A",
"%. c #AED56B",
"&. c #9FD767",
"*. c #92BB64",
"=. c #A1DB68",
"-. c #C4E970",
";. c #92BD66",
":. c #ADD16B",
">. c #A5E268",
",. c #90BB64",
"<. c #9FD667",
"1. c #C6E370",
"2. c #B6E46D",
"3. c #9ED567",
"4. c #ABCF6A",
"5. c #91BD64",
"6. c #AAD66A",
"7. c #9BCF66",
"8. c #F24E56",
"9. c #774E6C",
"0. c #FFEFD3",
"q. c #9ED467",
"w. c #A0D967",
"e. c #98C966",
"r. c #A5D569",
"t. c #ADDF6A",
"y. c #95C165",
"u. c #9BCC66",
"i. c #AEE86B",
"p. c #B7D86D",
"a. c #A1C968",
"s. c #A6D269",
"d. c #B8E46D",
"f. c #A4E168",
"g. c #A3DE68",
"h. c #8A244D",
"j. c #96C269",
"k. c #93BE66",
"l. c #9FC967",
"z. c #A5D574",
"x. c #C0E16F",
"c. c #A3CA68",
"v. c #F79C52",
"b. c #A5E269",
"n. c #A6E369",
"m. c #96C665",
"M. c #C0503C",
"N. c #A6E469",
"B. c #BAE76D",
"V. c #A8DA69",
"C. c #9CC96D",
"Z. c #92BC65",
"A. c #B0DD6B",
"S. c #9DCE67",
"D. c #A9D16A",
"F. c #BCE46E",
"G. c #B3E86C",
"H. c #C6E970",
"J. c #C6ED70",
"K. c #99C766",
"L. c #AAE26A",
"P. c #A8E369",
"I. c #98C46A",
"U. c #A3CF68",
"Y. c #9DC867",
"T. c #9DCA67",
"R. c #9DCA6E",
"E. c #98C36A",
"W. c #9FCD70",
"Q. c #B6D96D",
"!. c #9CC667",
"~. c #B0E36B",
"^. c #9AC266",
"/. c #9ACE66",
/* pixels */
"  . X X X X X o   o X .   X X O     o X X X X X X X + + @ X X X X X X X #   $ X X O $ X X X X X X # % X X $ O X X     % X X X X ",
"  . X X X X X X X X X .   X X O $ X X @ &   X X .     . X X X X X X X X X X X X X O $ X X X X X X X X X X $ O X X   . X X + * % ",
". = X X X X X X X X X = . X X - ; X X : > & # , .   . = X X X X X X X X X X X X X - ; X X X X X X X X X X ; - X X . = X X < 1 2 ",
"X X 3 4 X X X X X X X X X X X X X X X X : @   O .   X X X X X X X X X X X X X X X X X X 4 3 X X X X X X X X X X X X X X X X 5 6 ",
"X X 4 7 X X X X X X X 8 9 o 0 X X X X X X X $ q ; $ X X X X X X X X X w e X X X X X X X 7 4 X X X X X X X r t y X X X X X X X q ",
"X X X X X X X X X X X < +   . X X X X X X X X X X X X X X X X X X X X u i X X X X X X X X X X X X X X X X p a # X X X X X X X X ",
"X X X X X X q s p r X 8 9 d f g X X h q X X X X X X X j i X X k j X X w e X X X X X X X X X X X $ l z X X r x c $ X X q $ X X X ",
"X X X = % % v b n m X X X n M % = % N B X X X X X X X V C X X j Z X X X X X A @ A X X X X S % % D F G X X X G H   X J v D X X X ",
"X X X o   K L P X X X X X X I U Y   T R X X X E W X X X X X X X X Q Q Q Q Q Q Q Q Q X X X % ! * ~ ^ X X X X X / # . ( ) ~ X X X ",
"X X X o   & @ X X X X X X X X O     o X X X X _ ` X X X X X X X X Q Q Q Q Q Q Q Q Q X X X % * + X X X X X X X X X     % X X X X ",
"  . X o   . X X X X X X X X X O $ X X X X X X X X X X X X X X X X Q Q Q Q Q Q Q Q Q $ X X % # X X X X X X X X X X   . X X X X X ",
"  . X o   . X y # # ' ] X X X O $ X X X X X X X X X X ] 5 X Q Q Q [ [ [ [ [ [ Q Q Q $ X X % # X X I # { ~ } X X X   . X X X X X ",
"% | X o   .  ...a X.o.5 X X X ; g X X X X X n O.X X X ' o.X Q Q Q [ [ [ [ [ [ Q Q Q g X X % # X O +.@.#.@ A X X X % | X X X X O.",
"o 0 X o   Y I $.p r X X X w e X X X X X X X d %.y X o &.g *.Q Q Q [ [ [ [ [ [ Q Q Q - X X % =.o   -.z X X X ;.3 X X X X X X X :.",
"  . X o       $ X X X X X u i X X X X X X Q Q Q Q Q Q Q Q Q [ [ [ [ [ [ [ [ [ [ [ [ Q Q Q %       . X X X X _ ` X X X X X X X O ",
"  >.g ,.o =.<.- X X X X X w e X X X 1.2.3.Q Q Q Q Q Q Q Q Q [ [ [ [ [ [ [ [ [ [ [ [ Q Q Q = Y   o 0 X X X X ;.3 X X X 4.p $ ; 5.",
"% % S X X J S X X X X X X X X X X X z 6.U Q Q Q Q Q Q Q Q Q [ [ [ [ [ [ [ [ [ [ [ [ Q Q Q X | % X X X X X X X X X X X G @ % 7.O ",
"X X X X X X X X X X X X X X X X X X Q Q Q 8.8.8.8.8.8.Q Q Q 9.9.9.0.0.0.[ [ [ [ [ [ [ [ [ Q Q Q X X X X X X X X X X X X X X 3.$ ",
"X X X X X X X X X X X X X X X X X X Q Q Q 8.8.8.8.8.8.Q Q Q 9.9.9.0.0.0.[ [ [ [ [ [ [ [ [ Q Q Q X X X X X X X X X X X X X X X X ",
"X X X - $ $ g X X X X X X X 3.g X X Q Q Q 8.8.8.8.8.8.Q Q Q 9.9.9.0.0.0.[ [ [ [ [ [ [ [ [ Q Q Q X X X X X X X ; $ X X X X X X X ",
"X J S o   q.; X X X S J X X # % X X Q Q Q 8.8.8.8.8.8.8.8.8.0.0.0.0.0.0.0.0.0.[ [ [ [ [ [ Q Q Q X X X = % = X .   X X X X _ E X ",
"X # w.e.# / X X X X r.t.. X # w.; X Q Q Q 8.8.8.8.8.8.8.8.8.0.0.0.0.0.0.0.0.0.[ [ [ [ [ [ Q Q Q X X X y.* u.- .   . = X X ` W X ",
"X #   $ X X X X X X @ &   X #   $ X Q Q Q 8.8.8.8.8.8.8.8.8.0.0.0.0.0.0.0.0.0.[ [ [ [ [ [ Q Q Q X X X 9 + i.O .     . X X X X X ",
"X # % X X X n p X X X .   X X Q Q Q 9.9.9.8.8.8.8.8.8.8.8.8.0.0.0.0.0.0.0.0.0.0.0.0.[ [ [ 9.9.9.Q Q Q X X $ O X X   . X X   & @ ",
"X # % X X ] p.G X X X a.& # / Q Q Q 9.9.9.8.8.8.8.8.8.8.8.8.0.0.0.0.0.0.0.0.0.0.0.0.[ [ [ 9.9.9.Q Q Q X X l +.I X   ( # #   s.: ",
"X J I O O d.o.X X X X : @   . Q Q Q 9.9.9.8.8.8.8.8.8.8.8.8.0.0.0.0.0.0.0.0.0.0.0.0.[ [ [ 9.9.9.Q Q Q X X z @.# X % f.g.% % | X ",
"X X q $ $ $ g X X X X X Q Q Q 9.9.9.0.0.0.h.h.h.8.8.8.0.0.0.0.0.0.0.0.0.0.0.0.[ [ [ 9.9.9.0.0.0.[ [ [ Q Q Q g &.o X 3.g X X X X ",
"X X X X X X X X X X X X Q Q Q 9.9.9.0.0.0.h.h.h.8.8.8.0.0.0.0.0.0.0.0.0.0.0.0.[ [ [ 9.9.9.0.0.0.[ [ [ Q Q Q X .   X X X X X X X ",
"X X X X X X X X X X X X Q Q Q 9.9.9.0.0.0.h.h.h.8.8.8.0.0.0.0.0.0.0.0.0.0.0.0.[ [ [ 9.9.9.0.0.0.[ [ [ Q Q Q X 0 o X X X X X X X ",
"X X X X X X X X X X X ;.Q Q Q [ [ [ 0.0.0.0.0.0.h.h.h.0.0.0.0.0.0.0.0.0.0.0.0.0.0.0.0.0.0.0.0.0.0.0.0.Q Q Q C X X X X X X X X X ",
"X W i j.X X X X X X X k.Q Q Q [ [ [ 0.0.0.0.0.0.h.h.h.0.0.0.0.0.0.0.0.0.0.0.0.0.0.0.0.0.0.0.0.0.0.0.0.Q Q Q V X X X X X X X ^ l.",
"X ` u z.X X X X X X X X Q Q Q [ [ [ 0.0.0.0.0.0.h.h.h.0.0.0.0.0.0.0.0.0.0.0.0.0.0.0.0.0.0.0.0.0.0.0.0.Q Q Q X X X X X X X X ~ D ",
"X X X X X X X X X Q Q Q [ [ [ 0.0.0.0.0.0.Q Q Q 0.0.0.0.0.0.0.0.0.Q Q Q 0.0.0.0.0.0.0.0.0.0.0.0.0.0.0.Q Q Q X X X X X X X X X n ",
"X X X X X X R x.# Q Q Q [ [ [ 0.0.0.0.0.0.Q Q Q 0.0.0.0.0.0.0.0.0.Q Q Q 0.0.0.0.0.0.0.0.0.0.0.0.0.0.0.Q Q Q X X X X I J X X X r ",
"X R B q X X G x a Q Q Q [ [ [ 0.0.0.0.0.0.Q Q Q 0.0.0.0.0.0.0.0.0.Q Q Q 0.0.0.0.0.0.0.0.0.0.0.0.0.0.0.Q Q Q X - O O +.6.X X X X ",
"X ~ D $ X X X 9 + Q Q Q 0.0.0.0.0.0.0.0.0.Q Q Q 0.0.0.0.0.0.0.0.0.Q Q Q [ [ [ 0.0.0.0.0.0.0.0.0.0.0.0.Q Q Q X .     & @ X X X X ",
"X X n d   . X X X Q Q Q 0.0.0.0.0.0.0.0.0.Q Q Q 0.0.0.0.0.0.0.0.0.Q Q Q [ [ [ 0.0.0.0.0.0.0.0.0.0.0.0.Q Q Q %     X X X X X X X ",
"X X r c.. q.# 3.X Q Q Q 0.0.0.0.0.0.0.0.0.Q Q Q 0.0.0.0.0.0.0.0.0.Q Q Q [ [ [ 0.0.0.0.0.0.0.0.0.0.0.0.Q Q Q % ( . X X X X X X X ",
"X X X X X J =.$ X Q Q Q 0.0.0.0.0.0.0.0.0.v.v.v.v.v.v.v.v.v.0.0.0.0.0.0.0.0.0.0.0.0.0.0.0.0.0.0.0.0.0.Q Q Q =.# X X , O O n r 3 ",
"o 0 X X X X O f.o Q Q Q 0.0.0.0.0.0.0.0.0.v.v.v.v.v.v.v.v.v.0.0.0.0.0.0.0.0.0.0.0.0.0.0.0.0.0.0.0.0.0.Q Q Q b.3.X X # n.$ p G 4 ",
"  . X X X X O     Q Q Q 0.0.0.0.0.0.0.0.0.v.v.v.v.v.v.v.v.v.0.0.0.0.0.0.0.0.0.0.0.0.0.0.0.0.0.0.0.0.0.Q Q Q O X X X # % X X X X ",
"  . X X X X 5.m.  Q Q Q [ [ [ 0.0.0.[ [ [ M.M.M.v.v.v.v.v.v.[ [ [ 0.0.0.0.0.0.[ [ [ 0.0.0.0.0.0.Q Q Q X X $ O X X $ N.% X X X X ",
"  . X X X X X 5.O Q Q Q [ [ [ 0.0.0.[ [ [ M.M.M.v.v.v.v.v.v.[ [ [ 0.0.0.0.0.0.[ [ [ 0.0.0.0.0.0.Q Q Q X X $ O X X   q.; X @ r.S ",
"# / X X X X X X X Q Q Q [ [ [ 0.0.0.[ [ [ M.M.M.v.v.v.v.v.v.[ [ [ 0.0.0.0.0.0.[ [ [ 0.0.0.0.0.0.Q Q Q X X 3., X X # / X X ~ B.V.",
"X X X X X X X X X Q Q Q 9.9.9.[ [ [ [ [ [ [ [ [ M.M.M.h.h.h.h.h.h.[ [ [ [ [ [ [ [ [ [ [ [ [ [ [ Q Q Q X X X X X X X X X X X ~ D ",
"X X j.C.X X X X X Q Q Q 9.9.9.[ [ [ [ [ [ [ [ [ M.M.M.h.h.h.h.h.h.[ [ [ [ [ [ [ [ [ [ [ [ [ [ [ Q Q Q X X X X X X X X X X X X O ",
"X X Z.C X X X X X Q Q Q 9.9.9.[ [ [ [ [ [ [ [ [ M.M.M.h.h.h.h.h.h.[ [ [ [ [ [ [ [ [ [ [ [ [ [ [ Q Q Q X X P A.I X X X X X X X - ",
"X X X X X X  .S.n m X : Q Q Q Q Q Q [ [ [ [ [ [ [ [ [ h.h.h.h.h.h.[ [ [ [ [ [ 9.9.9.Q Q Q Q Q Q O D.G X X z F.+.O X X  .O X X X ",
"X X X ,.o o ..G.p r X X Q Q Q Q Q Q [ [ [ [ [ [ [ [ [ h.h.h.h.h.h.[ [ [ [ [ [ 9.9.9.Q Q Q Q Q Q i.H.z X X X z -.  X y ..i.X X X ",
"X X X o     a p X X X X Q Q Q Q Q Q [ [ [ [ [ [ [ [ [ h.h.h.h.h.h.[ [ [ [ [ [ 9.9.9.Q Q Q Q Q Q + < X X X X X .   X # a + X X X ",
"X X X o   J.x r X X X X Q Q Q Q Q Q Q Q Q 9.9.9.[ [ [ [ [ [ [ [ [ [ [ [ 9.9.9.Q Q Q Q Q Q Q Q Q 9 8 X X X X X 0 o $ N.X.9 X X X ",
"% | X o   H G X X X X X Q Q Q Q Q Q Q Q Q 9.9.9.[ [ [ [ [ [ [ [ [ [ [ [ 9.9.9.Q Q Q Q Q Q Q Q Q X X X X X X X X X   q.; X X X X ",
"  . X o   . X 0 . . l.^ Q Q Q Q Q Q Q Q Q 9.9.9.[ [ [ [ [ [ [ [ [ [ [ [ 9.9.9.Q Q Q Q Q Q Q Q Q X / . K.< 8 X X X   . X X X X X ",
"  . X o   . X o   Q Q Q M.M.M.M.M.M.9.9.9.Q Q Q Q Q Q Q Q Q Q Q Q Q Q Q 9.9.9.9.9.9.M.M.M.M.M.M.Q Q Q i.+ 9 X X X   . X X X X X ",
"o 0 X o   . q L.d Q Q Q M.M.M.M.M.M.9.9.9.Q Q Q Q Q Q Q Q Q Q Q Q Q Q Q 9.9.9.9.9.9.M.M.M.M.M.M.Q Q Q | 9 *.X X X o 0 X X X X 4.",
"% | X o   w.=.P.n Q Q Q M.M.M.M.M.M.9.9.9.Q Q Q Q Q Q Q Q Q Q Q Q Q Q Q 9.9.9.9.9.9.M.M.M.M.M.M.Q Q Q X X X I.7 X X X X X X X U.",
"  g | y # b.f.3.X X X X X ` W X X X G Y./ X # f.# X   . - T.~ } X X X X X X X X P d.>.. 0 J (   # / X X X X 7 R.X X X r < . = , ",
"    % X X # % X X X X X X X X X X X p a # X X % # X   . O $ X X X X X X X X X X X O     o X .   X X X X X X X X X X X n +   . X ",
"X X X X X X X X X X X X X X X X X X X X .     O X X X X O $ X X X E _ X X X X X X X X X X X X X X X X X X X X X X X X X X X #   ",
"X X X X X X X X X X X X X X X X X X X X = . . - X X X X - ; X X X e E X X E.W.X X X X X X X X X X X X X X X X X X X X X X X / . ",
"X X X 5.O O ; X X X X X X X , ; X X X X X X X X X X X X X X X q  .X X X X j.C.X X X X X X ; O O X X X X X X X - O X X X X X X X ",
"X y = o   >.g X X X = y X X # % X X X ;.3 X X X 0 o o 0 X X X s S.X X X X X ,.o ,.X ,.o ,.% N.$ X X X ,.o ,.X .   X X X X w e X ",
"X # % o   . X X X X % # X X # % X X X _ ` X X X .     . X X X p n X X X X X o   o X o   o % # X X X X o   o X .   X X X X u i X ",
"X # n.=.o 0 X X X X Q.c $ X # n.h X X ;.3 X X X 0 o   . X - $ !.m X X p ~.g ^.d L.g o   f./.y X X X X ^.d L.q .   $ ; X X w e X "
};
